<svg xmlns="http://www.w3.org/2000/svg" viewBox="0 0 64 64" id="pingpong">
  <path fill="#ff9100" d="M35.66 4.75a6 6 0 1 0 6 6 6 6 0 0 0-6-6Z"></path>
  <path fill="#ffd180" d="m39.13 32.47 14.68 9.15a7.48 7.48 0 0 1-7.68 2.54l-6.53 10.4-5.16-3.18 6.25-10.13s-4.36-3.66-1.56-8.78Z"></path>
  <path fill="#b71c1c" d="M57.42 39.14a10.68 10.68 0 0 1-2 2.48L38.15 31.46a10.9 10.9 0 0 1 1.18-3 10.5 10.5 0 1 1 18.09 10.68Z"></path>
  <path fill="#ffe082" d="m8.83 38.92 20.6-5.25s2.49 3.91-4.26 8.75l3.5 13.91-7.42 2.09L17.83 45s-7.45-1.06-9-6.08Z"></path>
  <path fill="#d50000" d="M14.5 18.88a13.63 13.63 0 0 1 3.33-.42 13.33 13.33 0 0 1 12.88 10 13.54 13.54 0 0 1 .39 4.32l-24.38 6.3a13.31 13.31 0 0 1 7.78-20.2Z"></path>
  <path fill="#212121" d="M26.4 43.19A14.5 14.5 0 0 0 32 27.72a14.6 14.6 0 1 0-15.93 18.15l3.56 13.77a1.55 1.55 0 0 0 .69.92 1.6 1.6 0 0 0 .76.2 1.58 1.58 0 0 0 .38 0l7.43-1.93A1.49 1.49 0 0 0 30 57zm-11.47-23a11.58 11.58 0 0 1 14.12 8.32 11.55 11.55 0 0 1 .35 3.77L8.14 37.76a11.63 11.63 0 0 1 6.79-17.61zm7.23 37.29-3.45-13.4A1.5 1.5 0 0 0 17.32 43a11.53 11.53 0 0 1-6.94-2.68l18.29-4.75a11.61 11.61 0 0 1-4.77 5.73 1.47 1.47 0 0 0-.67 1.65l3.45 13.36zM60 30.61a12 12 0 1 0-21.19 10.27l-5.7 9.67a1.5 1.5 0 0 0 .53 2.05L39 55.73a1.49 1.49 0 0 0 2-.53l5.7-9.68a11.9 11.9 0 0 0 8.36-1.88c.39-.28.47-.39.82-.6A12.08 12.08 0 0 0 60 30.61zM46.3 42.4a1.5 1.5 0 0 0-1.65.69l-5.47 9.3-2.72-1.61 5.47-9.29a1.51 1.51 0 0 0-.19-1.78A8.92 8.92 0 0 1 39.48 35l12 7.08a9 9 0 0 1-5.18.32zm9.87-4.2a9.06 9.06 0 0 1-1.74 2.13L39.6 31.6a9.17 9.17 0 0 1 1-2.55 9 9 0 0 1 15.57 9.15zM35.66 18.29a7.53 7.53 0 1 1 7.52-7.53 7.53 7.53 0 0 1-7.52 7.53zm0-12a4.53 4.53 0 1 0 4.52 4.52 4.53 4.53 0 0 0-4.52-4.57z"></path>
</svg>
